<svg xmlns="http://www.w3.org/2000/svg" viewBox="0 0 800 520">
  <defs>
    <linearGradient id="sky" x1="0" y1="0" x2="0" y2="1">
      <stop offset="0%" stop-color="#dff7ff"/>
      <stop offset="100%" stop-color="#8ed7d6"/>
    </linearGradient>
    <linearGradient id="sea" x1="0" y1="0" x2="0" y2="1">
      <stop offset="0%" stop-color="#2b9ca3"/>
      <stop offset="100%" stop-color="#12536a"/>
    </linearGradient>
  </defs>
  <rect width="800" height="520" fill="url(#sky)"/>
  <circle cx="154" cy="104" r="42" fill="#fff0a3"/>
  <path d="M0 278 C128 244 252 244 384 278 S644 326 800 288 V520 H0 Z" fill="url(#sea)"/>
  <path d="M0 348 C166 318 302 330 458 360 S678 396 800 372" fill="none" stroke="#7be1ea" stroke-width="10" opacity="0.5"/>
  <path d="M120 366 H256 L226 394 H154 Z" fill="#194d60"/>
  <path d="M324 338 H476 L448 366 H352 Z" fill="#194d60"/>
  <path d="M562 384 H698 L670 410 H590 Z" fill="#194d60"/>
  <rect x="182" y="138" width="12" height="214" rx="6" fill="#f7ffff"/>
  <rect x="394" y="114" width="12" height="214" rx="6" fill="#f7ffff"/>
  <rect x="628" y="168" width="12" height="190" rx="6" fill="#f7ffff"/>
  <circle cx="188" cy="136" r="14" fill="#ffffff"/>
  <circle cx="400" cy="112" r="14" fill="#ffffff"/>
  <circle cx="634" cy="166" r="14" fill="#ffffff"/>
  <path d="M188 136 L126 96 L182 134 Z" fill="#eefcff"/>
  <path d="M188 136 L232 74 L194 132 Z" fill="#eefcff"/>
  <path d="M188 136 L250 164 L194 140 Z" fill="#eefcff"/>
  <path d="M400 112 L338 72 L394 110 Z" fill="#eefcff"/>
  <path d="M400 112 L446 50 L406 108 Z" fill="#eefcff"/>
  <path d="M400 112 L462 140 L406 116 Z" fill="#eefcff"/>
  <path d="M634 166 L572 126 L628 164 Z" fill="#eefcff"/>
  <path d="M634 166 L680 104 L640 162 Z" fill="#eefcff"/>
  <path d="M634 166 L696 194 L640 170 Z" fill="#eefcff"/>
</svg>
