<svg xmlns="http://www.w3.org/2000/svg" viewBox="0 0 800 520">
  <defs>
    <linearGradient id="bg" x1="0" y1="0" x2="1" y2="1">
      <stop offset="0%" stop-color="#efffea"/>
      <stop offset="100%" stop-color="#7cc58c"/>
    </linearGradient>
    <linearGradient id="tower" x1="0" y1="0" x2="0" y2="1">
      <stop offset="0%" stop-color="#173c29"/>
      <stop offset="100%" stop-color="#22563a"/>
    </linearGradient>
  </defs>
  <rect width="800" height="520" fill="url(#bg)"/>
  <path d="M0 418 C150 372 286 372 430 420 S658 470 800 398 V520 H0 Z" fill="#4e9a62"/>
  <rect x="250" y="86" width="300" height="334" rx="28" fill="url(#tower)"/>
  <rect x="286" y="124" width="228" height="48" rx="16" fill="#d8f7df"/>
  <rect x="286" y="188" width="228" height="48" rx="16" fill="#d8f7df"/>
  <rect x="286" y="252" width="228" height="48" rx="16" fill="#d8f7df"/>
  <rect x="286" y="316" width="228" height="48" rx="16" fill="#d8f7df"/>
  <path d="M328 148 C350 114 394 120 402 148 C382 154 350 170 328 148 Z" fill="#2a9152"/>
  <path d="M398 148 C420 114 464 120 472 148 C452 154 420 170 398 148 Z" fill="#45b468"/>
  <path d="M328 212 C350 178 394 184 402 212 C382 218 350 234 328 212 Z" fill="#2a9152"/>
  <path d="M398 212 C420 178 464 184 472 212 C452 218 420 234 398 212 Z" fill="#45b468"/>
  <path d="M328 276 C350 242 394 248 402 276 C382 282 350 298 328 276 Z" fill="#2a9152"/>
  <path d="M398 276 C420 242 464 248 472 276 C452 282 420 298 398 276 Z" fill="#45b468"/>
  <path d="M328 340 C350 306 394 312 402 340 C382 346 350 362 328 340 Z" fill="#2a9152"/>
  <path d="M398 340 C420 306 464 312 472 340 C452 346 420 362 398 340 Z" fill="#45b468"/>
  <path d="M192 378 C236 308 292 300 334 348" fill="none" stroke="#f8fff9" stroke-width="16" stroke-linecap="round" opacity="0.65"/>
  <path d="M608 378 C564 308 508 300 466 348" fill="none" stroke="#f8fff9" stroke-width="16" stroke-linecap="round" opacity="0.65"/>
</svg>
