<?xml version="1.0" encoding="UTF-8"?>
<svg id="_Слой_1" data-name="Слой_1" xmlns="http://www.w3.org/2000/svg" version="1.1" viewBox="0 0 33 33">
  <!-- Generator: Adobe Illustrator 29.3.1, SVG Export Plug-In . SVG Version: 2.1.0 Build 151)  -->
  <defs>
    <style>
      .st0 {
        fill: #6e00b8;
      }
    </style>
  </defs>
  <path class="st0" d="M23.5,5.4l-7,7c-2.3-2.3-4.6-4.6-7-7-2.7-2.7-6.9,1.5-4.2,4.2,2.3,2.3,4.7,4.6,7,7-2.3,2.3-4.6,4.6-7,7-2.7,2.7,1.5,6.9,4.2,4.2,2.3-2.3,4.6-4.6,7-7l7,7c2.7,2.7,6.9-1.5,4.2-4.2-2.3-2.3-4.6-4.6-7-7,2.3-2.3,4.6-4.6,7-7,2.7-2.7-1.5-6.9-4.2-4.2"/>
</svg>