<svg width="360" height="140" viewBox="0 0 360 140" fill="none" xmlns="http://www.w3.org/2000/svg">
<path d="M44.5 53C55.7717 53 66.5815 57.4779 74.5518 65.4482C82.5221 73.4185 87 84.2283 87 95.5C87 106.772 82.5221 117.581 74.5518 125.552C66.5815 133.522 55.7717 138 44.5 138C33.2283 138 22.4185 133.522 14.4482 125.552C6.47795 117.581 2 106.772 2 95.5C2 84.2283 6.47795 73.4185 14.4482 65.4482C22.4185 57.4779 33.2283 53 44.5 53ZM66.2734 107.354C55.3868 92.8358 33.6132 92.8358 22.7266 107.354L21.5264 108.953L23.127 110.153L27.873 113.713L29.4736 114.913L30.6729 113.313C32.2827 111.167 34.3707 109.425 36.7705 108.225C39.1704 107.025 41.8168 106.4 44.5 106.4C47.1832 106.4 49.8296 107.025 52.2295 108.225C54.6293 109.425 56.7173 111.167 58.3271 113.313L59.5264 114.913L61.127 113.713L65.873 110.153L67.4736 108.953L66.2734 107.354ZM21.7334 88.5996H31.667V78.667H21.7334V88.5996ZM57.333 88.5996H67.2666V78.667H57.333V88.5996Z" fill="#FF9900" stroke="white" stroke-width="4"/>
<path d="M315.5 44C326.772 44 337.581 48.4779 345.552 56.4482C353.522 64.4185 358 75.2283 358 86.5C358 97.7717 353.522 108.581 345.552 116.552C337.581 124.522 326.772 129 315.5 129C304.228 129 293.419 124.522 285.448 116.552C277.478 108.581 273 97.7717 273 86.5C273 75.2283 277.478 64.4185 285.448 56.4482C293.419 48.4779 304.228 44 315.5 44ZM337.273 98.3535C326.387 83.8358 304.613 83.8358 293.727 98.3535L292.526 99.9531L294.127 101.153L298.873 104.713L300.474 105.913L301.673 104.313C303.283 102.167 305.371 100.425 307.771 99.2246C310.17 98.0247 312.817 97.4004 315.5 97.4004C318.183 97.4004 320.83 98.0247 323.229 99.2246C325.629 100.425 327.717 102.167 329.327 104.313L330.526 105.913L332.127 104.713L336.873 101.153L338.474 99.9531L337.273 98.3535ZM292.733 79.5996H302.667V69.667H292.733V79.5996ZM328.333 79.5996H338.267V69.667H328.333V79.5996Z" fill="#FF9900" stroke="white" stroke-width="4"/>
<path d="M180.5 2C197.341 2 213.493 8.69007 225.401 20.5986C237.31 32.5072 244 48.6588 244 65.5C244 82.3412 237.31 98.4928 225.401 110.401C213.493 122.31 197.341 129 180.5 129C163.659 129 147.507 122.31 135.599 110.401C123.69 98.4928 117 82.3412 117 65.5C117 48.6588 123.69 32.5072 135.599 20.5986C147.507 8.69007 163.659 2 180.5 2ZM211.793 83.5137C196.146 62.6485 164.854 62.6485 149.207 83.5137L148.007 85.1133L149.606 86.3135L156.594 91.5537L158.193 92.7529L159.394 91.1533C161.851 87.8767 165.038 85.2175 168.701 83.3857C172.365 81.554 176.404 80.5996 180.5 80.5996C184.596 80.5996 188.635 81.554 192.299 83.3857C195.962 85.2175 199.149 87.8767 201.606 91.1533L202.807 92.7529L204.406 91.5537L211.394 86.3135L212.993 85.1133L211.793 83.5137ZM147.934 54.4004H160.667V41.667H147.934V54.4004ZM200.333 54.4004H213.066V41.667H200.333V54.4004Z" fill="#FF9900" stroke="white" stroke-width="4"/>
</svg>
