<svg width="38" height="24" viewBox="0 0 38 24" fill="none" xmlns="http://www.w3.org/2000/svg">
<path d="M25.625 10.25C28.4608 10.25 30.7329 7.96083 30.7329 5.125C30.7329 2.28917 28.4608 0 25.625 0C22.7892 0 20.5 2.28917 20.5 5.125C20.5 7.96083 22.7892 10.25 25.625 10.25ZM11.9583 10.25C14.7942 10.25 17.0662 7.96083 17.0662 5.125C17.0662 2.28917 14.7942 0 11.9583 0C9.1225 0 6.83333 2.28917 6.83333 5.125C6.83333 7.96083 9.1225 10.25 11.9583 10.25ZM11.9583 13.6667C7.97792 13.6667 0 15.6654 0 19.6458V22.2083C0 23.1479 0.76875 23.9167 1.70833 23.9167H22.2083C23.1479 23.9167 23.9167 23.1479 23.9167 22.2083V19.6458C23.9167 15.6654 15.9387 13.6667 11.9583 13.6667ZM25.625 13.6667C25.1296 13.6667 24.5658 13.7008 23.9679 13.7521C24.0021 13.7692 24.0192 13.8033 24.0362 13.8204C25.9837 15.2383 27.3333 17.1346 27.3333 19.6458V22.2083C27.3333 22.8062 27.2137 23.3871 27.0258 23.9167H35.875C36.8146 23.9167 37.5833 23.1479 37.5833 22.2083V19.6458C37.5833 15.6654 29.6054 13.6667 25.625 13.6667Z" fill="white"/>
</svg>
