<svg width="43" height="43" viewBox="0 0 43 43" fill="none" xmlns="http://www.w3.org/2000/svg">
<path d="M21.125 37.25C17.0042 37.25 13.4137 35.8842 10.3535 33.1525C7.29333 30.4208 5.53869 27.0088 5.08958 22.9167H8.7625C9.18056 26.0222 10.5619 28.5903 12.9066 30.6208C15.2513 32.6514 17.9908 33.6667 21.125 33.6667C24.6188 33.6667 27.5828 32.4501 30.017 30.017C32.4513 27.584 33.6679 24.6199 33.6667 21.125C33.6655 17.6301 32.4489 14.6666 30.017 12.2348C27.5852 9.80286 24.6211 8.58572 21.125 8.58333C19.0646 8.58333 17.1385 9.06111 15.3469 10.0167C13.5552 10.9722 12.0472 12.2861 10.8229 13.9583H15.75V17.5417H5V6.79167H8.58333V11.0021C10.1063 9.09097 11.9654 7.61285 14.1608 6.56771C16.3562 5.52257 18.6776 5 21.125 5C23.3646 5 25.4626 5.42582 27.4191 6.27746C29.3756 7.1291 31.0777 8.27815 32.5254 9.72463C33.973 11.1711 35.1227 12.8732 35.9743 14.8309C36.826 16.7886 37.2512 18.8866 37.25 21.125C37.2488 23.3634 36.8236 25.4614 35.9743 27.4191C35.1251 29.3768 33.9754 31.0789 32.5254 32.5254C31.0753 33.9718 29.3732 35.1215 27.4191 35.9743C25.465 36.8272 23.367 37.2524 21.125 37.25ZM26.1417 28.65L19.3333 21.8417V12.1667H22.9167V20.4083L28.65 26.1417L26.1417 28.65Z" fill="white"/>
</svg>
