<svg width="38" height="38" viewBox="0 0 38 38" fill="none" xmlns="http://www.w3.org/2000/svg">
<path d="M17.4166 26.9166H20.5833V17.4166H17.4166V26.9166ZM19 14.25C19.4486 14.25 19.8249 14.098 20.1289 13.794C20.4329 13.49 20.5843 13.1142 20.5833 12.6666C20.5833 12.218 20.4313 11.8422 20.1273 11.5393C19.8233 11.2363 19.4475 11.0843 19 11.0833C18.5513 11.0833 18.1756 11.2353 17.8726 11.5393C17.5697 11.8433 17.4177 12.2191 17.4166 12.6666C17.4166 13.1152 17.5686 13.4915 17.8726 13.7955C18.1766 14.0995 18.5524 14.251 19 14.25ZM19 34.8333C16.8097 34.8333 14.7513 34.4174 12.825 33.5856C10.8986 32.7538 9.22288 31.626 7.79788 30.202C6.37288 28.777 5.24502 27.1013 4.41429 25.175C3.58357 23.2486 3.16768 21.1902 3.16663 19C3.16663 16.8097 3.58252 14.7513 4.41429 12.825C5.24607 10.8986 6.37393 9.22288 7.79788 7.79788C9.22288 6.37288 10.8986 5.24502 12.825 4.41429C14.7513 3.58357 16.8097 3.16768 19 3.16663C21.1902 3.16663 23.2486 3.58252 25.175 4.41429C27.1013 5.24607 28.777 6.37393 30.202 7.79788C31.627 9.22288 32.7554 10.8986 33.5872 12.825C34.419 14.7513 34.8343 16.8097 34.8333 19C34.8333 21.1902 34.4174 23.2486 33.5856 25.175C32.7538 27.1013 31.626 28.777 30.202 30.202C28.777 31.627 27.1013 32.7554 25.175 33.5872C23.2486 34.419 21.1902 34.8343 19 34.8333Z" fill="white"/>
</svg>
