<svg width="38" height="38" viewBox="0 0 38 38" fill="none" xmlns="http://www.w3.org/2000/svg">
<path fill-rule="evenodd" clip-rule="evenodd" d="M22.496 7.64746C23.2137 7.86913 23.8998 8.15413 24.5543 8.50246L27.4565 6.76079C27.7592 6.57928 28.1138 6.50407 28.464 6.5471C28.8143 6.59013 29.1401 6.74893 29.3898 6.99829L31.0016 8.61013C31.251 8.85982 31.4098 9.18566 31.4528 9.53591C31.4958 9.88616 31.4206 10.2408 31.2391 10.5434L29.4975 13.4456C29.8458 14.1001 30.1308 14.7862 30.3525 15.504L33.6347 16.3257C33.9771 16.4115 34.281 16.6092 34.4982 16.8875C34.7153 17.1657 34.8333 17.5086 34.8333 17.8615V20.1384C34.8333 20.4913 34.7153 20.8342 34.4982 21.1125C34.281 21.3907 33.9771 21.5884 33.6347 21.6742L30.3525 22.496C30.1308 23.2137 29.8458 23.8998 29.4975 24.5543L31.2391 27.4565C31.4206 27.7592 31.4958 28.1138 31.4528 28.464C31.4098 28.8143 31.251 29.1401 31.0016 29.3898L29.3898 31.0016C29.1401 31.251 28.8143 31.4098 28.464 31.4528C28.1138 31.4958 27.7592 31.4206 27.4565 31.2391L24.5543 29.4975C23.8998 29.8458 23.2137 30.1308 22.496 30.3525L21.6742 33.6347C21.5884 33.9771 21.3907 34.281 21.1125 34.4982C20.8342 34.7153 20.4913 34.8333 20.1384 34.8333H17.8615C17.5086 34.8333 17.1657 34.7153 16.8875 34.4982C16.6092 34.281 16.4115 33.9771 16.3257 33.6347L15.504 30.3525C14.7926 30.1326 14.1034 29.8464 13.4456 29.4975L10.5434 31.2391C10.2408 31.4206 9.88616 31.4958 9.53591 31.4528C9.18566 31.4098 8.85982 31.251 8.61013 31.0016L6.99829 29.3898C6.74893 29.1401 6.59013 28.8143 6.5471 28.464C6.50407 28.1138 6.57928 27.7592 6.76079 27.4565L8.50246 24.5543C8.15356 23.8965 7.8673 23.2074 7.64746 22.496L4.36521 21.6742C4.02308 21.5885 3.71937 21.391 3.50223 21.1131C3.2851 20.8351 3.16699 20.4927 3.16663 20.14V17.8631C3.16664 17.5102 3.28459 17.1673 3.50175 16.889C3.71891 16.6108 4.02282 16.4131 4.36521 16.3273L7.64746 15.5055C7.86913 14.7878 8.15413 14.1017 8.50246 13.4472L6.76079 10.545C6.57928 10.2423 6.50407 9.88775 6.5471 9.53749C6.59013 9.18724 6.74893 8.8614 6.99829 8.61171L8.61013 6.99829C8.85982 6.74893 9.18566 6.59013 9.53591 6.5471C9.88616 6.50407 10.2408 6.57928 10.5434 6.76079L13.4456 8.50246C14.1001 8.15413 14.7862 7.86913 15.504 7.64746L16.3257 4.36521C16.4114 4.02308 16.6089 3.71937 16.8868 3.50223C17.1648 3.2851 17.5073 3.16699 17.86 3.16663H20.1368C20.4898 3.16664 20.8326 3.28459 21.1109 3.50175C21.3891 3.71891 21.5869 4.02282 21.6726 4.36521L22.496 7.64746ZM19 25.3333C20.6797 25.3333 22.2906 24.666 23.4783 23.4783C24.666 22.2906 25.3333 20.6797 25.3333 19C25.3333 17.3203 24.666 15.7093 23.4783 14.5216C22.2906 13.3339 20.6797 12.6666 19 12.6666C17.3203 12.6666 15.7093 13.3339 14.5216 14.5216C13.3339 15.7093 12.6666 17.3203 12.6666 19C12.6666 20.6797 13.3339 22.2906 14.5216 23.4783C15.7093 24.666 17.3203 25.3333 19 25.3333Z" fill="white"/>
</svg>
