<svg width="143" height="118" viewBox="0 0 143 118" fill="none" xmlns="http://www.w3.org/2000/svg">
<path d="M18.5304 78.447C20.362 78.4055 22.1353 79.0933 23.4599 80.359C24.7844 81.6248 25.5521 83.365 25.5937 85.1966C25.6142 86.1035 25.4555 87.0057 25.1274 87.8514C24.7994 88.6972 24.3083 89.4702 23.6816 90.1261C23.0549 90.7819 22.3049 91.3075 21.475 91.6736C20.645 92.0397 19.751 92.2392 18.844 92.2599C17.9371 92.2804 17.035 92.1217 16.1892 91.7936C15.3435 91.4656 14.5705 90.9745 13.9146 90.3478C13.2587 89.7211 12.7322 88.9712 12.3661 88.1412C12 87.3112 11.8014 86.4171 11.7808 85.5102C11.7392 83.6786 12.4271 81.9054 13.6929 80.5808C14.9586 79.2562 16.6988 78.4886 18.5304 78.447ZM124.911 76.0316C126.743 75.9901 128.516 76.678 129.841 77.9437C131.165 79.2095 131.933 80.9496 131.974 82.7813C132.016 84.6129 131.328 86.3861 130.062 87.7107C128.797 89.0351 127.056 89.8029 125.225 89.8445C123.393 89.886 121.62 89.1982 120.295 87.9325C118.971 86.6667 118.203 84.9264 118.162 83.0949C118.12 81.2633 118.808 79.49 120.074 78.1654C121.339 76.8409 123.08 76.0733 124.911 76.0316Z" fill="#00A6ED" stroke="white" stroke-width="2"/>
<path d="M37.824 22.0874C39.0825 22.066 40.3148 22.4464 41.3427 23.1729C42.3712 23.8998 43.1416 24.9353 43.5412 26.1296C43.9408 27.3238 43.9491 28.6143 43.5653 29.8136C43.1814 31.0131 42.4248 32.0596 41.406 32.7999L40.569 33.4079L41.2058 34.2238L56.5344 53.8604L27.0812 57.9362L36.4811 34.8321L36.8715 33.8728L35.8984 33.5169C33.7008 32.7121 32.1127 30.6081 32.0563 28.1271C31.9825 24.8775 34.5748 22.163 37.824 22.0874ZM103.027 20.607C106.278 20.5332 108.993 23.1279 109.067 26.3786C109.123 28.8597 107.631 31.0336 105.472 31.9372L104.517 32.337L104.951 33.2775L115.389 55.9312L85.7808 53.1963L100.203 32.8842L100.802 32.0413L99.9397 31.4719C98.368 30.4325 97.3009 28.6531 97.2553 26.6468C97.1815 23.3961 99.7762 20.6809 103.027 20.607Z" fill="#E19747" stroke="white" stroke-width="2"/>
<path d="M70.0261 2.58916C71.715 2.55081 73.3691 3.07488 74.7272 4.07951C76.0852 5.08407 77.0704 6.51208 77.5281 8.13808C77.9857 9.76423 77.8898 11.497 77.255 13.0625C76.6202 14.6279 75.4822 15.9373 74.0213 16.7853L72.82 17.4827L73.8626 18.4007C74.0146 18.5345 74.1491 18.6876 74.2636 18.8546L74.2798 18.8777L74.2969 18.8997L96.838 48.0763L96.839 48.0782C99.0731 50.9578 103.078 51.5665 106.073 49.5692L106.079 49.5651L125.457 36.409L125.468 36.4009C126.314 35.8088 127.208 35.578 128.148 35.5567L130.017 35.5142L128.944 33.9835C128.327 33.1021 127.915 31.9513 127.887 30.7576C127.814 27.507 130.408 24.7918 133.659 24.7178C136.91 24.644 139.625 27.2387 139.699 30.4895C139.773 33.7401 137.178 36.4545 133.927 36.5283C133.892 36.5291 133.839 36.5254 133.7 36.5139C133.584 36.5043 133.41 36.4902 133.226 36.4944L131.542 36.5326L132.382 37.9934C132.903 38.8992 133.175 40.0548 132.955 41.2537L132.954 41.2596L121.418 106.45C120.658 110.658 117.033 113.761 112.754 113.858L32.3921 115.683C28.1139 115.779 24.3515 112.845 23.4007 108.676L8.91792 44.0758L8.91681 44.07L8.87069 43.8454C8.66387 42.7285 8.85425 41.6972 9.33488 40.7999L10.4341 38.748L8.1887 39.3636C8.13333 39.3788 8.01997 39.387 7.73126 39.3935C4.48061 39.4673 1.76548 36.8735 1.69148 33.6229C1.61768 30.3721 4.21234 27.6569 7.4631 27.5831C10.7138 27.5094 13.4291 30.104 13.5029 33.3547C13.5302 34.5605 13.2121 35.6719 12.5992 36.6163L11.5685 38.2036L13.4606 38.1606C14.4 38.1393 15.304 38.3293 16.1759 38.8824L16.1878 38.8899L36.1422 51.153L36.1491 51.1568C39.2243 53.0118 43.2573 52.2334 45.313 49.2373L45.312 49.2364L66.5001 19.0768L66.5265 19.0381L66.55 18.9975C66.6238 18.868 66.7317 18.7484 66.9399 18.5305L67.8597 17.568L66.6794 16.952C65.1815 16.1711 63.9853 14.9148 63.2801 13.3798C62.5748 11.8448 62.4004 10.1181 62.7838 8.47284C63.1672 6.82776 64.0866 5.3565 65.3976 4.29134C66.7087 3.22612 68.3373 2.62751 70.0261 2.58916Z" fill="#FFB02E" stroke="white" stroke-width="2"/>
<path d="M71.6164 72.6358C74.669 72.5665 77.624 73.7127 79.8315 75.8222C82.039 77.9317 83.3181 80.8316 83.3875 83.8842C83.4568 86.9368 82.3105 89.8917 80.201 92.0992C78.0915 94.3068 75.1916 95.5859 72.1391 95.6552C69.0865 95.7245 66.1315 94.5783 63.924 92.4688C61.7165 90.3593 60.4373 87.4594 60.368 84.4068C60.2987 81.3543 61.4449 78.3992 63.5544 76.1917C65.6639 73.9842 68.5638 72.7051 71.6164 72.6358Z" fill="#00A6ED" stroke="white" stroke-width="2"/>
<path d="M39.2556 78.3769C40.9811 78.3378 42.6515 78.9859 43.8993 80.1782C45.147 81.3706 45.8703 83.0099 45.9095 84.7353C45.9486 86.4608 45.3006 88.1312 44.1082 89.379C42.9158 90.6268 41.2765 91.35 39.5511 91.3892C37.8256 91.4284 36.1552 90.7802 34.9074 89.5879C33.6596 88.3955 32.9364 86.7562 32.8972 85.0308C32.858 83.3053 33.5061 81.635 34.6985 80.3871C35.8909 79.1393 37.5301 78.4161 39.2556 78.3769ZM104.305 76.9C106.031 76.8608 107.701 77.5089 108.949 78.7013C110.197 79.8937 110.92 81.533 110.959 83.2584C110.998 84.9838 110.35 86.6543 109.158 87.9021C107.965 89.1498 106.326 89.8731 104.601 89.9123C102.875 89.9514 101.205 89.3033 99.9571 88.111C98.7093 86.9186 97.9861 85.2793 97.9469 83.5538C97.9077 81.8284 98.5558 80.158 99.7482 78.9102C100.941 77.6624 102.58 76.9392 104.305 76.9Z" fill="#F8312F" stroke="white" stroke-width="2"/>
</svg>
