<svg width="338" height="135" viewBox="0 0 338 135" fill="none" xmlns="http://www.w3.org/2000/svg">
<path d="M35.5 66C36.2218 66 37.1062 66.3693 38.5391 68.2402C39.9732 70.1129 41.5779 72.9811 43.8594 77.0723H43.8604L45.0244 79.1602V79.1592C46.2154 81.2963 47.0656 82.9046 48.4707 83.9736C49.891 85.0541 51.6515 85.408 53.9629 85.9297L56.2197 86.4414C60.6537 87.4454 63.7451 88.1508 65.8799 88.9922C67.9747 89.8179 68.6339 90.5782 68.8867 91.3877V91.3887C69.1444 92.2183 69.0276 93.2786 67.7793 95.2617C66.8331 96.7648 65.4076 98.5355 63.4805 100.816L61.3857 103.276L59.8457 105.076L59.8438 105.077C58.2637 106.926 57.0674 108.267 56.5371 109.972L56.5361 109.973C56.0092 111.672 56.2205 113.47 56.46 115.941V115.942L56.6934 118.344V118.345C57.1486 123.054 57.4645 126.367 57.3574 128.771C57.2505 131.173 56.7383 132.075 56.1055 132.555L56.1045 132.556C55.504 133.012 54.5952 133.244 52.4199 132.62C50.2191 131.989 47.3198 130.661 43.1699 128.75L43.168 128.749L41.0488 127.775C38.893 126.78 37.2721 125.989 35.5 125.989C34.17 125.989 32.9253 126.435 31.4756 127.078L29.9473 127.777L27.835 128.749H27.834C23.6827 130.66 20.7821 131.989 18.5811 132.62C16.4045 133.244 15.4959 133.011 14.8975 132.558C14.2624 132.075 13.7499 131.171 13.6426 128.771C13.5351 126.367 13.8504 123.053 14.3057 118.344L14.54 115.946V115.944C14.7788 113.477 14.9899 111.677 14.4609 109.981H14.4619C13.9353 108.267 12.7344 106.925 11.1543 105.079L9.61523 103.277L9.61426 103.276C6.59501 99.7475 4.48208 97.2677 3.2207 95.2637C1.97318 93.2816 1.85528 92.2207 2.11328 91.3887L2.1123 91.3877C2.36509 90.5781 3.02602 89.8175 5.12207 88.9912C7.25748 88.1495 10.3496 87.4435 14.7832 86.4414H14.7842L17.04 85.9297L17.041 85.9307C19.3517 85.4084 21.1043 85.0535 22.5264 83.9756L22.5293 83.9736C23.9343 82.9047 24.7838 81.2961 25.9746 79.1592L25.9756 79.1602L27.1396 77.0723H27.1406C29.4221 72.9811 31.0268 70.1129 32.4609 68.2402C33.8938 66.3693 34.7782 66 35.5 66Z" fill="#FF9900" stroke="white" stroke-width="4"/>
<path d="M302.5 66C303.222 66 304.106 66.3693 305.539 68.2402C306.973 70.1129 308.578 72.9811 310.859 77.0723H310.86L312.024 79.1602V79.1592C313.215 81.2963 314.066 82.9046 315.471 83.9736C316.891 85.0541 318.651 85.408 320.963 85.9297L323.22 86.4414C327.654 87.4454 330.745 88.1508 332.88 88.9922C334.975 89.8179 335.634 90.5782 335.887 91.3877V91.3887C336.144 92.2183 336.028 93.2786 334.779 95.2617C333.833 96.7648 332.408 98.5355 330.48 100.816L328.386 103.276L326.846 105.076L326.844 105.077C325.264 106.926 324.067 108.267 323.537 109.972L323.536 109.973C323.009 111.672 323.22 113.47 323.46 115.941V115.942L323.693 118.344V118.345C324.149 123.054 324.465 126.367 324.357 128.771C324.25 131.173 323.738 132.075 323.105 132.555L323.104 132.556C322.504 133.012 321.595 133.244 319.42 132.62C317.219 131.989 314.32 130.661 310.17 128.75L310.168 128.749L308.049 127.775C305.893 126.78 304.272 125.989 302.5 125.989C301.17 125.989 299.925 126.435 298.476 127.078L296.947 127.777L294.835 128.749H294.834C290.683 130.66 287.782 131.989 285.581 132.62C283.405 133.244 282.496 133.011 281.897 132.558C281.262 132.075 280.75 131.171 280.643 128.771C280.535 126.367 280.85 123.053 281.306 118.344L281.54 115.946V115.944C281.779 113.477 281.99 111.677 281.461 109.981H281.462C280.935 108.267 279.734 106.925 278.154 105.079L276.615 103.277L276.614 103.276C273.595 99.7475 271.482 97.2677 270.221 95.2637C268.973 93.2816 268.855 92.2207 269.113 91.3887L269.112 91.3877C269.365 90.5781 270.026 89.8175 272.122 88.9912C274.257 88.1495 277.35 87.4435 281.783 86.4414H281.784L284.04 85.9297L284.041 85.9307C286.352 85.4084 288.104 85.0535 289.526 83.9756L289.529 83.9736C290.934 82.9047 291.784 81.2961 292.975 79.1592L292.976 79.1602L294.14 77.0723H294.141C296.422 72.9811 298.027 70.1129 299.461 68.2402C300.894 66.3693 301.778 66 302.5 66Z" fill="#FF9900" stroke="white" stroke-width="4"/>
<path d="M168.5 2C170.737 2 172.886 3.27791 175.711 6.9668C178.537 10.6571 181.661 16.2519 185.97 23.9785L188.184 27.9453V27.9463C190.527 32.1507 191.954 34.7923 194.255 36.543C196.571 38.3051 199.451 38.9131 204.003 39.9404V39.9395L208.294 40.9121C216.664 42.8074 222.708 44.1806 226.927 45.8438C231.108 47.4918 232.983 49.228 233.704 51.5439V51.543C234.429 53.8764 233.875 56.4733 231.402 60.4014C229.227 63.8571 225.797 67.9901 221.153 73.4365L219.089 75.8525L216.16 79.2744L216.159 79.2754C213.056 82.9068 211.094 85.1404 210.222 87.9463L210.221 87.9473C209.351 90.7504 209.678 93.7387 210.147 98.5879V98.5889L210.593 103.159C211.453 112.055 212.072 118.508 211.861 123.237C211.651 127.964 210.628 130.378 208.77 131.787L208.768 131.788C206.942 133.175 204.499 133.448 200.175 132.209C195.825 130.962 190.163 128.36 182.33 124.753L182.328 124.752L178.302 122.904H178.303C174.052 120.941 171.384 119.669 168.5 119.669C165.616 119.669 162.948 120.941 158.697 122.904L154.678 124.753H154.677C146.841 128.36 141.177 130.96 136.827 132.207C132.502 133.447 130.06 133.175 128.237 131.793C126.375 130.379 125.35 127.963 125.139 123.237C124.927 118.507 125.547 112.055 126.407 103.159L126.853 98.5957V98.5947C127.322 93.7477 127.648 90.7559 126.773 87.959H126.774C126.017 85.4933 124.417 83.4739 121.95 80.5791L120.84 79.2812L117.912 75.8535L117.911 75.8525L115.847 73.4375C111.203 67.9936 107.773 63.8618 105.598 60.4062C103.125 56.4785 102.571 53.8787 103.296 51.541C104.018 49.2263 105.896 47.4892 110.077 45.8408C114.298 44.177 120.342 42.8038 128.712 40.9121H128.713L133.006 39.9395L133.005 39.9385C137.552 38.9107 140.421 38.3051 142.742 36.5459L142.745 36.543C145.046 34.7923 146.473 32.1507 148.816 27.9463L148.815 27.9453L151.03 23.9785C155.339 16.2519 158.463 10.6571 161.289 6.9668C164.114 3.2779 166.263 2 168.5 2Z" fill="#FF9900" stroke="white" stroke-width="4"/>
</svg>
